<svg width="120.000000" height="24.000000" viewBox="0 0 120 24" fill="none" xmlns="http://www.w3.org/2000/svg" xmlns:xlink="http://www.w3.org/1999/xlink">
	<desc>
			Created with Pixso.
	</desc>
	<defs/>
	<path id="Path" d="M22.675 0L1.32501 0C0.593018 0 0 0.59375 0 1.32422L0 22.6758C0 23.4062 0.593018 24 1.32501 24L12.82 24L12.82 14.7051L9.69202 14.7051L9.69202 11.084L12.82 11.084L12.82 8.41211C12.82 5.3125 14.713 3.625 17.479 3.625C18.804 3.625 19.942 3.72461 20.274 3.76758L20.274 7.00781L18.356 7.00977C16.852 7.00977 16.561 7.72461 16.561 8.77148L16.561 11.0859L20.148 11.0859L19.681 14.707L16.561 14.707L16.561 24L22.677 24C23.407 24 24 23.4062 24 22.6758L24 1.32422C24 0.59375 23.407 0 22.675 0Z" fill="#FEFCF7" fill-opacity="1.000000" fill-rule="nonzero"/>
	<path id="Shape" d="M108 0C104.741 0 104.333 0.0136719 103.053 0.0722656C98.695 0.271484 96.273 2.68945 96.073 7.05273C96.014 8.33203 96 8.74023 96 12C96 15.2598 96.014 15.668 96.072 16.9473C96.272 21.3066 98.69 23.7285 103.052 23.9277C104.333 23.9863 104.741 24 108 24C111.259 24 111.668 23.9863 112.948 23.9277C117.302 23.7285 119.73 21.3105 119.927 16.9473C119.986 15.668 120 15.2598 120 12C120 8.74023 119.986 8.33203 119.928 7.05273C119.732 2.69922 117.311 0.273438 112.949 0.0722656C111.668 0.0136719 111.259 0 108 0ZM112.85 2.23242C111.584 2.17578 111.204 2.16211 108 2.16211C104.796 2.16211 104.417 2.17578 103.151 2.23242C99.896 2.38086 98.381 3.92383 98.232 7.15039C98.175 8.41797 98.162 8.79688 98.162 12C98.162 15.2051 98.174 15.584 98.232 16.8496C98.38 20.0703 99.891 21.6191 103.151 21.7695C104.416 21.8262 104.796 21.8398 108 21.8398C111.206 21.8398 111.584 21.8262 112.85 21.7695C116.105 21.6211 117.62 20.0742 117.769 16.8496C117.826 15.5859 117.838 15.2051 117.838 12.002C117.838 8.79688 117.827 8.41797 117.769 7.15234C117.621 3.92383 116.102 2.38086 112.85 2.23242ZM112.965 5.5957C112.965 4.80078 113.61 4.1543 114.406 4.1543C115.201 4.1543 115.845 4.80078 115.845 5.5957C115.845 6.39062 115.201 7.03516 114.406 7.03516C113.61 7.03516 112.965 6.39062 112.965 5.5957ZM101.838 12C101.838 8.59766 104.597 5.83789 108 5.83789C111.403 5.83789 114.162 8.59766 114.162 12C114.162 15.4043 111.403 18.1621 108 18.1621C104.597 18.1621 101.838 15.4023 101.838 12ZM108 16C105.791 16 104 14.2109 104 12C104 9.79102 105.791 8 108 8C110.209 8 112 9.79102 112 12C112 14.2109 110.209 16 108 16Z" clip-rule="evenodd" fill="#FEFCF7" fill-opacity="1.000000" fill-rule="evenodd"/>
	<path id="Path" d="M72 4.55664C71.117 4.94922 70.168 5.21289 69.172 5.33203C70.189 4.72266 70.97 3.75781 71.337 2.60742C70.386 3.17188 69.332 3.58203 68.21 3.80273C67.313 2.8457 66.032 2.24805 64.616 2.24805C61.437 2.24805 59.101 5.21484 59.819 8.29297C55.728 8.08789 52.1 6.12891 49.671 3.14844C48.381 5.36133 49.002 8.25781 51.194 9.72266C50.388 9.69727 49.628 9.47656 48.965 9.10742C48.911 11.3887 50.546 13.5215 52.914 13.9961C52.221 14.1855 51.462 14.2285 50.69 14.0801C51.316 16.0371 53.134 17.4609 55.29 17.5C53.22 19.123 50.612 19.8477 48 19.541C50.179 20.9375 52.768 21.752 55.548 21.752C64.69 21.752 69.855 14.0312 69.543 7.10547C70.505 6.41016 71.34 5.54492 72 4.55664Z" fill="#FEFCF7" fill-opacity="1.000000" fill-rule="nonzero"/>
</svg>
