<svg width="160.820312" height="17.307617" viewBox="0 0 160.82 17.3076" fill="none" xmlns="http://www.w3.org/2000/svg" xmlns:xlink="http://www.w3.org/1999/xlink">
	<desc>
			Created with Pixso.
	</desc>
	<defs/>
	<path id="coffeeroasters" d="M29.1935 16.0889Q28.1897 16.5811 26.8513 16.5811Q25.5483 16.5811 24.4954 16.0684L24.4944 16.0674Q24.4031 16.0234 24.3137 15.9746C23.5664 15.5703 22.9771 14.9854 22.5458 14.2188Q21.8989 13.0684 21.8989 11.4209Q21.8989 9.91992 22.4991 8.7207Q22.5353 8.64844 22.5737 8.57715Q22.9391 7.89844 23.46 7.37402Q23.9009 6.93066 24.4532 6.59668Q24.5305 6.55078 24.6095 6.50684L24.6097 6.50684Q25.761 5.87012 27.2639 5.87012Q28.6359 5.87012 29.5784 6.28223Q30.5209 6.69434 31.0172 7.39844C31.3481 7.86719 31.5135 8.3916 31.5135 8.97168Q31.5135 9.75 31.1382 10.2432Q31.0724 10.3301 30.9949 10.4082Q30.8973 10.5059 30.7864 10.585Q30.3083 10.9287 29.5839 10.9287Q28.8117 10.9287 28.3535 10.5488Q28.269 10.4795 28.1953 10.3965C27.8793 10.042 27.7213 9.55566 27.7213 8.9375L27.7213 8.20508Q27.7213 7.64453 27.5204 7.3584Q27.4323 7.23242 27.3118 7.16211Q27.158 7.07227 26.9516 7.07227Q26.8506 7.07227 26.755 7.09473Q26.5024 7.15527 26.288 7.375C26.0909 7.57715 25.9385 7.88086 25.8307 8.28516C25.7228 8.68945 25.6689 9.18945 25.6689 9.78418Q25.6689 11.0654 26.0426 11.9355C26.2917 12.5156 26.6319 12.9502 27.0632 13.2402Q27.2787 13.3848 27.5142 13.4814Q27.9852 13.6748 28.5355 13.6748Q29.3608 13.6748 29.9186 13.4287C30.2903 13.2646 30.5767 12.9883 30.7774 12.5986C30.8889 12.4922 30.9763 12.4238 31.0395 12.3936C31.1027 12.3623 31.1641 12.3477 31.2236 12.3477C31.2979 12.3545 31.3593 12.3916 31.4076 12.4561C31.4495 12.5127 31.4704 12.5957 31.4704 12.7061C31.4704 12.7236 31.4699 12.7412 31.4689 12.7588C31.4094 13.5068 31.1827 14.167 30.7886 14.7393C30.3945 15.3115 29.8628 15.7607 29.1935 16.0889ZM40.5315 15.8604C39.6949 16.3252 38.7227 16.5586 37.6147 16.5586Q35.9974 16.5586 34.7761 15.877C33.9619 15.4229 33.3279 14.7959 32.8743 13.9951Q32.864 13.9766 32.8538 13.958Q32.194 12.7695 32.194 11.2139Q32.194 10.0645 32.6078 9.08984Q32.7375 8.78418 32.9078 8.49609Q33.1832 8.03125 33.5398 7.63965Q34.1078 7.01562 34.882 6.58008Q34.9315 6.55176 34.9814 6.52539Q36.2067 5.87012 37.782 5.87012Q39.4105 5.87012 40.6263 6.55664C41.4368 7.01465 42.0688 7.64746 42.5225 8.45605Q42.5279 8.46582 42.5334 8.47559Q43.2028 9.68262 43.2028 11.2598Q43.2028 12.4551 42.7593 13.4531Q42.6423 13.7168 42.4946 13.9658C42.0224 14.7637 41.368 15.3945 40.5315 15.8604ZM38.4624 15.3682C38.2319 15.4141 38.007 15.3105 37.7876 15.0596Q37.4586 14.6816 37.163 13.7891C36.9659 13.1943 36.7781 12.4121 36.5997 11.4434C36.4286 10.4746 36.332 9.67676 36.3097 9.05176C36.306 8.94727 36.3041 8.84766 36.3041 8.75195C36.3041 8.27246 36.3506 7.89941 36.4435 7.63281C36.5551 7.3125 36.7261 7.125 36.9566 7.07227C37.1871 7.02637 37.412 7.12891 37.6314 7.38086C37.8508 7.63281 38.0609 8.05566 38.2616 8.65137C38.4624 9.24609 38.652 10.0283 38.8304 10.9971C39.0089 11.9658 39.1075 12.7646 39.126 13.3945C39.1286 13.4814 39.1299 13.5664 39.1299 13.6475C39.1299 14.1523 39.0803 14.543 38.9811 14.8193C38.8658 15.1396 38.6929 15.3223 38.4624 15.3682ZM51.1555 15.8262C51.1555 16.1768 50.9808 16.3525 50.6313 16.3525L44.4744 16.3525C44.3256 16.3525 44.2048 16.3086 44.1118 16.2207C44.0189 16.1328 43.9724 16.0088 43.9724 15.8486Q43.9724 15.6426 44.0673 15.5166Q44.162 15.3906 44.3628 15.3105L44.8424 15.1621C44.9614 15.124 45.0543 15.0518 45.1213 14.9443C45.1882 14.8379 45.2217 14.6855 45.2217 14.4873L45.2217 7.87305C45.2217 7.76562 45.1956 7.67676 45.1436 7.60352C45.0916 7.53125 44.9949 7.46484 44.8536 7.40332L44.2067 7.18652C44.0356 7.10254 43.913 7.0127 43.8386 6.91699C43.7642 6.82227 43.7271 6.70605 43.7271 6.56836C43.7271 6.43066 43.7735 6.31836 43.8665 6.23047L43.903 6.2002C43.992 6.13281 44.1082 6.09961 44.2513 6.09961L45.23 6.09961L45.2224 6.03223C45.2014 5.89844 45.1492 5.77051 45.0655 5.64746C44.954 5.4834 44.8276 5.29785 44.6863 5.0918C44.545 4.88574 44.4186 4.64062 44.3071 4.35449Q44.1397 3.9248 44.1397 3.2959Q44.1397 2.30957 44.5744 1.58301Q44.8003 1.20508 45.1436 0.898438Q46.1474 0 47.999 0Q49.1924 0 49.9788 0.388672C50.503 0.648438 50.8953 0.993164 51.1555 1.4248C51.4158 1.85547 51.5459 2.32715 51.5459 2.83789C51.5459 3.44043 51.3916 3.89258 51.083 4.19434C50.7744 4.49512 50.3785 4.64551 49.8951 4.64551C49.3597 4.64551 48.9285 4.4707 48.6013 4.11914C48.2741 3.76855 48.1105 3.30371 48.1105 2.72363L48.1105 1.70508C48.1105 1.43848 48.0585 1.24121 47.9543 1.11523Q47.931 1.08789 47.9039 1.06348Q47.7498 0.926758 47.4747 0.926758C47.1996 0.926758 46.9914 1.02246 46.8501 1.21289C46.7089 1.40332 46.6382 1.67871 46.6382 2.03711Q46.6382 2.34277 46.7161 2.62793Q46.778 2.85352 46.8892 3.06641Q46.9013 3.08984 46.9138 3.11328Q47.158 3.56738 47.5082 3.96484C47.7536 4.24316 47.999 4.51074 48.2443 4.76562C48.4897 5.02148 48.6961 5.27344 48.8634 5.52148L48.9111 5.5957C49.0014 5.74414 49.0616 5.8916 49.0918 6.03906L49.102 6.09961L50.754 6.09961C50.925 6.09961 51.057 6.13574 51.1499 6.20801C51.2429 6.28027 51.2894 6.39258 51.2894 6.5459C51.2894 6.77441 51.1927 6.96094 50.9993 7.10645C50.806 7.25098 50.5012 7.32324 50.0847 7.32324L49.2928 7.32324L49.2928 14.4531C49.2928 14.666 49.3244 14.8301 49.3876 14.9443C49.4508 15.0596 49.5531 15.1279 49.6943 15.1504L50.6536 15.2998C50.8246 15.3223 50.951 15.3779 51.0328 15.4658Q51.0441 15.4775 51.0543 15.4902Q51.1555 15.6182 51.1555 15.8262ZM58.9409 15.8262C58.9409 16.1768 58.7662 16.3525 58.4167 16.3525L52.2598 16.3525C52.111 16.3525 51.9902 16.3086 51.8972 16.2207C51.8043 16.1328 51.7578 16.0088 51.7578 15.8486Q51.7578 15.6426 51.8526 15.5166Q51.9474 15.3906 52.1482 15.3105L52.6278 15.1621C52.7468 15.124 52.8397 15.0518 52.9067 14.9443C52.9736 14.8379 53.0071 14.6855 53.0071 14.4873L53.0071 7.87305C53.0071 7.76562 52.981 7.67676 52.929 7.60352C52.877 7.53125 52.7803 7.46484 52.639 7.40332L51.9921 7.18652C51.821 7.10254 51.6984 7.0127 51.624 6.91699C51.5496 6.82227 51.5125 6.70605 51.5125 6.56836C51.5125 6.43066 51.5589 6.31836 51.6519 6.23047L51.6884 6.2002C51.7774 6.13281 51.8936 6.09961 52.0367 6.09961L53.0154 6.09961L53.0078 6.03223C52.9868 5.89844 52.9346 5.77051 52.8509 5.64746C52.7394 5.4834 52.613 5.29785 52.4717 5.0918C52.3304 4.88574 52.204 4.64062 52.0924 4.35449Q51.9251 3.9248 51.9251 3.2959Q51.9251 2.30957 52.3598 1.58301Q52.5857 1.20508 52.929 0.898438Q53.9328 0 55.7844 0C56.58 0 57.2399 0.129883 57.7642 0.388672C58.2884 0.648438 58.6807 0.993164 58.9409 1.4248C59.2012 1.85547 59.3313 2.32715 59.3313 2.83789C59.3313 3.44043 59.177 3.89258 58.8684 4.19434C58.5598 4.49512 58.1639 4.64551 57.6805 4.64551C57.1451 4.64551 56.7139 4.4707 56.3867 4.11914Q56.3044 4.03125 56.2359 3.93359Q55.8959 3.44727 55.8959 2.72363L55.8959 1.70508Q55.8959 1.30469 55.7397 1.11523C55.6356 0.990234 55.4758 0.926758 55.2601 0.926758C54.985 0.926758 54.7768 1.02246 54.6355 1.21289Q54.4236 1.49902 54.4236 2.03711C54.4236 2.40332 54.5073 2.74609 54.6746 3.06641C54.8419 3.38672 55.0482 3.68652 55.2936 3.96484C55.539 4.24316 55.7844 4.51074 56.0297 4.76562C56.2751 5.02148 56.4815 5.27344 56.6488 5.52148L56.6965 5.5957C56.7868 5.74414 56.847 5.8916 56.8771 6.03906L56.8873 6.09961L58.5394 6.09961C58.7104 6.09961 58.8424 6.13574 58.9353 6.20801C59.0283 6.28027 59.0748 6.39258 59.0748 6.5459C59.0748 6.77441 58.9781 6.96094 58.7847 7.10645C58.5914 7.25098 58.2866 7.32324 57.8701 7.32324L57.0782 7.32324L57.0782 14.4531C57.0782 14.666 57.1098 14.8301 57.173 14.9443C57.2362 15.0596 57.3384 15.1279 57.4797 15.1504L58.439 15.2998C58.61 15.3223 58.7365 15.3779 58.8182 15.4658Q58.8295 15.4775 58.8397 15.4902Q58.9409 15.6182 58.9409 15.8262ZM67.1502 16.0205C66.4289 16.3945 65.5961 16.5811 64.6517 16.5811C63.6107 16.5811 62.696 16.3623 61.9078 15.9229C61.1196 15.4844 60.5043 14.8701 60.0619 14.0811Q59.3983 12.8965 59.3983 11.3408C59.3983 10.249 59.6121 9.29395 60.0396 8.47363C60.4672 7.65332 61.0862 7.01465 61.8967 6.55664C62.7072 6.09961 63.6813 5.87012 64.819 5.87012C65.7857 5.87012 66.6185 6.06348 67.3175 6.44824C68.0165 6.83398 68.5537 7.35645 68.9292 8.01562Q69.0771 8.27637 69.1862 8.55176Q69.4925 9.32422 69.4925 10.2188Q69.4925 10.7041 69.256 10.999Q69.2357 11.0244 69.2136 11.0488L69.1693 11.0938C68.9861 11.2656 68.7332 11.3516 68.4106 11.3516L63.3117 11.3516L63.3226 11.4043C63.4579 12.0332 63.689 12.5361 64.0159 12.9141C64.5736 13.5586 65.3173 13.8809 66.2467 13.8809C66.8416 13.8809 67.3677 13.7432 67.825 13.4688C68.2823 13.1943 68.5891 12.8125 68.7452 12.3242C68.8344 12.2256 68.9144 12.1582 68.985 12.124C69.0556 12.0898 69.117 12.0723 69.169 12.0723Q69.2128 12.0723 69.2515 12.0869Q69.3112 12.1084 69.3586 12.1641C69.4107 12.2256 69.4367 12.3281 69.4367 12.4736C69.4367 13.2207 69.236 13.9053 68.8344 14.5273C68.4329 15.1494 67.8715 15.6465 67.1502 16.0205ZM63.1953 10.4346C63.1847 10.2588 63.1794 10.0762 63.1794 9.8877Q63.1794 8.81152 63.3356 8.19336Q63.4917 7.57617 63.7371 7.31836C63.9007 7.14648 64.0829 7.06055 64.2836 7.06055C64.5439 7.06055 64.7874 7.28613 65.0142 7.73633C65.241 8.18555 65.3544 8.93359 65.3544 9.97852C65.3544 10.2988 65.2131 10.459 64.9305 10.459L63.1968 10.459L63.1953 10.4346ZM77.8133 16.0205C77.092 16.3945 76.2592 16.5811 75.3148 16.5811C74.2738 16.5811 73.3592 16.3623 72.571 15.9229C71.7828 15.4844 71.1674 14.8701 70.725 14.0811Q70.0613 12.8965 70.0613 11.3408C70.0613 10.249 70.2751 9.29395 70.7027 8.47363C71.1302 7.65332 71.7493 7.01465 72.5598 6.55664C73.3704 6.09961 74.3444 5.87012 75.4821 5.87012C76.4488 5.87012 77.2816 6.06348 77.9806 6.44824C78.6796 6.83398 79.2168 7.35645 79.5923 8.01562Q79.7402 8.27637 79.8493 8.55176Q80.1556 9.32422 80.1556 10.2188Q80.1556 10.7041 79.9191 10.999Q79.8988 11.0244 79.8768 11.0488L79.8324 11.0938C79.6492 11.2656 79.3963 11.3516 79.0737 11.3516L73.9748 11.3516L73.9858 11.4043C74.121 12.0332 74.3521 12.5361 74.6791 12.9141C75.2368 13.5586 75.9803 13.8809 76.9099 13.8809C77.5047 13.8809 78.0308 13.7432 78.4881 13.4688C78.9454 13.1943 79.2521 12.8125 79.4083 12.3242C79.4975 12.2256 79.5775 12.1582 79.6481 12.124C79.7188 12.0898 79.7801 12.0723 79.8322 12.0723Q79.876 12.0723 79.9146 12.0869Q79.9744 12.1084 80.0217 12.1641C80.0738 12.2256 80.0999 12.3281 80.0999 12.4736C80.0999 13.2207 79.899 13.9053 79.4975 14.5273C79.096 15.1494 78.5345 15.6465 77.8133 16.0205ZM73.8584 10.4346C73.8478 10.2588 73.8425 10.0762 73.8425 9.8877Q73.8425 8.81152 73.9987 8.19336Q74.1548 7.57617 74.4002 7.31836C74.5638 7.14648 74.746 7.06055 74.9468 7.06055C75.207 7.06055 75.4505 7.28613 75.6773 7.73633C75.9041 8.18555 76.0175 8.93359 76.0175 9.97852C76.0175 10.2988 75.8762 10.459 75.5937 10.459L73.8599 10.459L73.8584 10.4346ZM87.3219 16.21C87.2289 16.3047 87.0932 16.3525 86.9147 16.3525L81.3378 16.3525Q81.1257 16.3525 80.9928 16.25Q80.9719 16.2344 80.953 16.2148C80.86 16.124 80.8136 15.998 80.8136 15.8379C80.8136 15.7158 80.8415 15.6143 80.8972 15.5342C80.953 15.4541 81.0292 15.3799 81.1259 15.3115L81.3824 15.208C81.4791 15.1621 81.546 15.0898 81.5832 14.9912C81.6204 14.8916 81.639 14.7275 81.639 14.499L81.639 8.68555C81.639 8.50293 81.6185 8.37109 81.5776 8.29102C81.5367 8.21094 81.468 8.14746 81.3713 8.10254L81.0813 8.06738C80.9772 8.00684 80.9009 7.94238 80.8526 7.87305C80.8043 7.80469 80.7802 7.7168 80.7802 7.61035C80.7802 7.48828 80.8173 7.37891 80.8917 7.28418C80.966 7.18848 81.0924 7.10645 81.2709 7.03809L84.4386 6.11133C84.6245 6.03516 84.7806 5.98145 84.907 5.95117C85.0334 5.91992 85.1413 5.90527 85.2305 5.90527C85.3569 5.90527 85.4517 5.95117 85.515 6.04199L85.5353 6.0752C85.5874 6.1709 85.6234 6.32422 85.6432 6.53418L85.7281 8.3125L85.7474 8.24707C85.7852 8.12305 85.8266 8.00391 85.8719 7.89062C86.1433 7.20801 86.5021 6.7002 86.9482 6.36816C87.3943 6.03711 87.8814 5.87109 88.4094 5.87109Q89.0667 5.87109 89.5145 6.17676Q89.7202 6.31738 89.8817 6.52344C90.2238 6.95801 90.3948 7.61816 90.3948 8.50293C90.3948 9.37988 90.2163 10.0244 89.8594 10.4365C89.5024 10.8486 89.0414 11.0547 88.4763 11.0547C87.926 11.0547 87.5189 10.9131 87.2549 10.6309C86.991 10.3486 86.8516 9.94824 86.8367 9.42969L86.8255 8.97168C86.8181 8.7959 86.7846 8.65918 86.7251 8.55957C86.6656 8.46094 86.569 8.41113 86.4351 8.41113C86.3013 8.41113 86.1842 8.48145 86.0838 8.62305C85.9834 8.76367 85.9072 8.97949 85.8551 9.26953C85.8031 9.55957 85.777 9.92871 85.777 10.3789L85.777 14.4072C85.777 14.6211 85.8105 14.791 85.8774 14.916Q85.9257 15.0068 85.9997 15.0645Q86.0797 15.127 86.1898 15.1514L87.0263 15.3223C87.1824 15.3457 87.2939 15.4043 87.3609 15.5C87.4279 15.5957 87.4613 15.708 87.4613 15.8379C87.4613 15.9902 87.4148 16.1143 87.3219 16.21ZM96.2394 16.5586C95.1613 16.5586 94.215 16.3311 93.4008 15.877C92.5865 15.4229 91.9526 14.7959 91.4991 13.9951C91.0455 13.1934 90.8187 12.2666 90.8187 11.2139C90.8187 10.207 91.0566 9.30176 91.5325 8.49609C92.0084 7.69141 92.6665 7.05273 93.5068 6.58008C94.347 6.10645 95.3137 5.87012 96.4067 5.87012C97.4924 5.87012 98.4405 6.09863 99.251 6.55664C100.062 7.01465 100.694 7.64746 101.147 8.45605C101.601 9.26465 101.828 10.1992 101.828 11.2598C101.828 12.2666 101.591 13.1689 101.119 13.9658C100.647 14.7637 99.9927 15.3945 99.1562 15.8604C98.3196 16.3252 97.3474 16.5586 96.2394 16.5586ZM97.0871 15.3682C96.8566 15.4141 96.6317 15.3105 96.4123 15.0596Q96.0833 14.6816 95.7877 13.7891C95.5906 13.1943 95.4029 12.4121 95.2244 11.4434C95.0534 10.4746 94.9567 9.67676 94.9344 9.05176C94.9307 8.94727 94.9288 8.84766 94.9288 8.75195C94.9288 8.27246 94.9753 7.89941 95.0682 7.63281Q95.2098 7.22656 95.479 7.10645Q95.5281 7.08398 95.5814 7.07227C95.8119 7.02637 96.0368 7.12891 96.2562 7.38086C96.4755 7.63281 96.6855 8.05566 96.8864 8.65137C97.0871 9.24609 97.2767 10.0283 97.4552 10.9971Q97.7229 12.4502 97.7508 13.3945C97.7534 13.4814 97.7546 13.5664 97.7546 13.6475C97.7546 14.1523 97.705 14.543 97.6058 14.8193C97.4905 15.1396 97.3176 15.3223 97.0871 15.3682ZM112.212 16.2324C111.81 16.4648 111.297 16.5811 110.672 16.5811C109.922 16.5811 109.34 16.4189 108.927 16.0947L108.856 16.0371C108.628 15.8408 108.471 15.6191 108.385 15.3721L108.369 15.3213L108.353 15.3408C108.081 15.6807 107.728 15.9551 107.293 16.1641C106.713 16.4424 106.088 16.5811 105.419 16.5811Q104.233 16.5811 103.463 16.0156Q103.364 15.9424 103.272 15.8604C102.733 15.3799 102.463 14.7656 102.463 14.0176C102.463 13.0342 102.856 12.2676 103.64 11.7178C104.424 11.1689 105.616 10.8945 107.215 10.8945L107.335 10.8955C107.571 10.9004 107.779 10.9199 107.958 10.9551L108.018 10.9688L108.018 7.63281C108.018 7.36621 107.957 7.1543 107.834 6.99805C107.711 6.84082 107.546 6.7627 107.338 6.7627C107.144 6.7627 106.982 6.82227 106.852 6.94043Q106.81 6.97949 106.777 7.02441Q106.657 7.1875 106.657 7.43848L106.657 8.30762Q106.657 8.8584 106.422 9.27539Q106.295 9.50098 106.099 9.68652C105.728 10.042 105.218 10.2188 104.571 10.2188Q103.779 10.2188 103.361 9.83594C103.082 9.58008 102.943 9.20801 102.943 8.71973C102.943 8.26172 103.131 7.81348 103.506 7.375C103.882 6.93652 104.443 6.57617 105.19 6.29395C105.938 6.01172 106.869 5.87012 107.984 5.87012Q110.137 5.87012 111.147 6.7002C111.82 7.25293 112.156 8.0332 112.156 9.04004L112.156 14.0977C112.156 14.2432 112.188 14.3594 112.251 14.4473C112.314 14.5352 112.409 14.5791 112.535 14.5791C112.624 14.5791 112.708 14.5518 112.786 14.499C112.864 14.4453 112.922 14.3496 112.959 14.2129C112.981 14.1816 113.007 14.1592 113.037 14.1436C113.067 14.1289 113.1 14.1211 113.138 14.1211Q113.186 14.1211 113.226 14.1387Q113.289 14.166 113.333 14.2354C113.381 14.3115 113.405 14.4072 113.405 14.5215C113.405 14.7881 113.307 15.082 113.11 15.4023C112.913 15.7227 112.613 16 112.212 16.2324ZM107.549 14.7959C107.252 14.7959 107.012 14.6719 106.83 14.4238C106.648 14.1758 106.557 13.7959 106.557 13.2852C106.557 12.751 106.644 12.3467 106.819 12.0723C106.994 11.7979 107.226 11.6602 107.516 11.6602C107.687 11.6602 107.836 11.6777 107.962 11.7119L108.018 11.7285L108.018 14.665L107.981 14.6865C107.863 14.749 107.74 14.7842 107.613 14.793L107.549 14.7959ZM121.581 15.6885C120.875 16.3057 119.86 16.6152 118.536 16.6152Q117.867 16.6152 117.426 16.4893C117.133 16.4053 116.895 16.3213 116.712 16.2373C116.53 16.1533 116.383 16.1113 116.272 16.1113C116.16 16.1113 116.013 16.1533 115.831 16.2373L115.285 16.4893C115.102 16.5732 114.948 16.6152 114.822 16.6152Q114.776 16.6152 114.732 16.6064Q114.615 16.584 114.509 16.501C114.413 16.4248 114.338 16.2715 114.286 16.043L113.941 13.7656C113.9 13.5918 113.88 13.4346 113.88 13.293C113.88 13.1992 113.889 13.1123 113.907 13.0332C113.952 12.835 114.052 12.7051 114.208 12.6445C114.372 12.5684 114.534 12.5645 114.693 12.6328C114.853 12.7012 114.997 12.8232 115.123 12.999C115.547 13.6631 115.93 14.1855 116.272 14.5664Q116.785 15.1387 117.27 15.373C117.594 15.5303 117.934 15.6084 118.291 15.6084C118.67 15.6084 118.952 15.5166 119.138 15.333C119.324 15.1504 119.417 14.918 119.417 14.6357C119.417 14.4219 119.363 14.2275 119.255 14.0518C119.148 13.876 118.951 13.7139 118.664 13.5654C118.378 13.417 117.967 13.2695 117.432 13.125C116.606 12.9111 115.922 12.6328 115.379 12.2891Q114.565 11.7744 114.169 11.0537C113.905 10.5732 113.773 10.0127 113.773 9.37109C113.773 8.64648 113.95 8.02344 114.303 7.50098C114.656 6.97852 115.14 6.5752 115.753 6.29297C116.367 6.01074 117.056 5.87012 117.822 5.87012C118.283 5.87012 118.659 5.91602 118.949 6.00684C119.239 6.09863 119.464 6.19043 119.624 6.28223C119.783 6.37305 119.904 6.41895 119.986 6.41895Q120.12 6.41895 120.382 6.28809C120.557 6.2002 120.733 6.11426 120.912 6.03027C121.09 5.94629 121.239 5.9043 121.358 5.9043C121.492 5.9043 121.6 5.9502 121.681 6.04199C121.763 6.13281 121.819 6.28906 121.849 6.51074L122.139 8.61621Q122.184 8.88379 122.184 9.07812C122.184 9.1709 122.177 9.25195 122.161 9.32031C122.124 9.48438 122.027 9.58887 121.871 9.63477C121.745 9.66504 121.611 9.64062 121.469 9.56055C121.328 9.48047 121.187 9.35254 121.046 9.17676Q120.231 7.92969 119.557 7.41504C119.107 7.07129 118.629 6.89941 118.123 6.89941C117.759 6.89941 117.484 6.97949 117.298 7.14062C117.112 7.30078 117.019 7.50977 117.019 7.76953C117.019 7.94531 117.06 8.10938 117.142 8.26172C117.224 8.41406 117.374 8.55762 117.594 8.69043C117.813 8.82422 118.123 8.95605 118.525 9.08594C119.603 9.4209 120.44 9.77734 121.034 10.1553C121.629 10.5332 122.046 10.9658 122.284 11.4541C122.522 11.9424 122.641 12.5107 122.641 13.1592C122.641 14.2275 122.287 15.0703 121.581 15.6885ZM129.11 16.1855Q128.374 16.5811 127.37 16.5811C126.24 16.5811 125.39 16.3018 124.821 15.7451C124.252 15.1885 123.968 14.3115 123.968 13.1133L123.968 7.94141C123.968 7.78125 123.953 7.65918 123.923 7.5752C123.894 7.49121 123.819 7.42285 123.7 7.36914L123.176 7.19727C123.05 7.13672 122.968 7.06152 122.931 6.97461C122.893 6.88672 122.875 6.77734 122.875 6.64844C122.875 6.48828 122.931 6.35645 123.042 6.25293C123.154 6.15039 123.291 6.09863 123.455 6.09863L124.001 6.09863Q124.102 6.09863 124.213 6.01855C124.288 5.96484 124.388 5.8584 124.514 5.69824L126.578 3.94727Q126.801 3.67285 127.024 3.53027C127.173 3.43457 127.322 3.38672 127.47 3.38672C127.641 3.38672 127.775 3.44043 127.872 3.54688L127.902 3.58496C127.979 3.69141 128.017 3.84668 128.017 4.05078L128.016 6.09863L130.348 6.09863C130.512 6.09863 130.638 6.13477 130.727 6.20703C130.816 6.28027 130.861 6.39258 130.861 6.54492C130.861 6.75879 130.768 6.94141 130.582 7.09473L130.541 7.12598C130.353 7.25781 130.07 7.32324 129.69 7.32324L128.016 7.32324L128.017 12.541C128.017 13.1133 128.112 13.5371 128.301 13.8115C128.491 14.0859 128.768 14.2236 129.132 14.2236C129.288 14.2236 129.433 14.1895 129.567 14.1201Q129.617 14.0947 129.664 14.0654Q129.808 13.9766 129.93 13.8516C130.037 13.7412 130.14 13.6172 130.236 13.4795C130.333 13.3418 130.426 13.2051 130.515 13.0674Q130.572 13.0449 130.621 13.0547Q130.669 13.0654 130.71 13.1074C130.76 13.1582 130.784 13.2549 130.784 13.3975C130.784 13.416 130.784 13.4365 130.783 13.457Q130.705 14.3838 130.275 15.0869C129.989 15.5566 129.601 15.9229 129.11 16.1855ZM138.914 16.0205C138.193 16.3945 137.36 16.5811 136.416 16.5811C135.375 16.5811 134.46 16.3623 133.672 15.9229C132.884 15.4844 132.268 14.8701 131.826 14.0811C131.383 13.291 131.162 12.3779 131.162 11.3408Q131.162 9.7041 131.804 8.47363C132.231 7.65332 132.85 7.01465 133.661 6.55664C134.471 6.09961 135.445 5.87012 136.583 5.87012C137.55 5.87012 138.382 6.06348 139.081 6.44824C139.78 6.83398 140.318 7.35645 140.693 8.01562C141.069 8.67578 141.256 9.41016 141.256 10.2188Q141.256 10.7041 141.02 10.999Q141 11.0244 140.978 11.0488L140.933 11.0938C140.75 11.2656 140.497 11.3516 140.174 11.3516L135.076 11.3516L135.087 11.4043Q135.289 12.3467 135.78 12.9141C136.338 13.5586 137.081 13.8809 138.011 13.8809C138.606 13.8809 139.132 13.7432 139.589 13.4688C140.046 13.1943 140.353 12.8125 140.509 12.3242C140.598 12.2256 140.678 12.1582 140.749 12.124C140.82 12.0898 140.881 12.0723 140.933 12.0723C141.007 12.0723 141.071 12.1035 141.123 12.1641C141.175 12.2256 141.201 12.3281 141.201 12.4736C141.201 13.2207 141 13.9053 140.598 14.5273C140.197 15.1494 139.635 15.6465 138.914 16.0205ZM134.959 10.4346C134.949 10.2588 134.943 10.0762 134.943 9.8877C134.943 9.16992 134.995 8.60547 135.099 8.19336C135.204 7.78125 135.337 7.49023 135.501 7.31836C135.665 7.14648 135.847 7.06055 136.048 7.06055C136.308 7.06055 136.551 7.28613 136.778 7.73633C137.005 8.18555 137.118 8.93359 137.118 9.97852Q137.118 10.249 136.984 10.3672Q136.88 10.459 136.694 10.459L134.961 10.459L134.959 10.4346ZM148.423 16.21C148.33 16.3047 148.194 16.3525 148.016 16.3525L142.439 16.3525C142.275 16.3525 142.147 16.3066 142.054 16.2148C141.961 16.124 141.914 15.998 141.914 15.8379C141.914 15.7158 141.942 15.6143 141.998 15.5342C142.054 15.4541 142.13 15.3799 142.227 15.3115L142.483 15.208C142.58 15.1621 142.647 15.0898 142.684 14.9912C142.721 14.8916 142.74 14.7275 142.74 14.499L142.74 8.68555C142.74 8.50293 142.719 8.37109 142.679 8.29102C142.638 8.21094 142.569 8.14746 142.472 8.10254L142.182 8.06738C142.078 8.00684 142.002 7.94238 141.953 7.87305C141.905 7.80469 141.881 7.7168 141.881 7.61035C141.881 7.48828 141.918 7.37891 141.993 7.28418C142.067 7.18848 142.193 7.10645 142.372 7.03809L145.539 6.11133C145.725 6.03516 145.882 5.98145 146.008 5.95117C146.134 5.91992 146.242 5.90527 146.331 5.90527C146.458 5.90527 146.553 5.95117 146.616 6.04199L146.636 6.0752C146.688 6.1709 146.724 6.32422 146.744 6.53418L146.829 8.3125L146.848 8.24707C146.886 8.12305 146.927 8.00391 146.973 7.89062C147.244 7.20801 147.603 6.7002 148.049 6.36816C148.495 6.03711 148.982 5.87109 149.51 5.87109C150.15 5.87109 150.641 6.08789 150.983 6.52344C151.325 6.95801 151.496 7.61816 151.496 8.50293C151.496 9.37988 151.317 10.0244 150.96 10.4365Q150.721 10.7129 150.418 10.8662Q150.045 11.0547 149.577 11.0547C149.027 11.0547 148.62 10.9131 148.356 10.6309C148.092 10.3486 147.952 9.94824 147.938 9.42969L147.926 8.97168C147.919 8.7959 147.885 8.65918 147.826 8.55957C147.767 8.46094 147.67 8.41113 147.536 8.41113C147.402 8.41113 147.285 8.48145 147.185 8.62305C147.084 8.76367 147.008 8.97949 146.956 9.26953C146.904 9.55957 146.878 9.92871 146.878 10.3789L146.878 14.4072C146.878 14.6211 146.911 14.791 146.978 14.916Q147.027 15.0068 147.101 15.0645Q147.181 15.127 147.291 15.1514L148.127 15.3223C148.283 15.3457 148.395 15.4043 148.462 15.5C148.529 15.5957 148.562 15.708 148.562 15.8379C148.562 15.9902 148.516 16.1143 148.423 16.21ZM159.761 15.6885C159.054 16.3057 158.039 16.6152 156.716 16.6152Q156.046 16.6152 155.606 16.4893C155.312 16.4053 155.074 16.3213 154.892 16.2373C154.71 16.1533 154.563 16.1113 154.451 16.1113C154.34 16.1113 154.193 16.1533 154.011 16.2373L153.464 16.4893Q153.191 16.6152 153.001 16.6152C152.89 16.6152 152.786 16.5771 152.689 16.501C152.592 16.4248 152.518 16.2715 152.466 16.043L152.12 13.7656Q152.06 13.5049 152.06 13.293Q152.06 13.1523 152.087 13.0332C152.131 12.835 152.232 12.7051 152.388 12.6445C152.552 12.5684 152.713 12.5645 152.873 12.6328C153.033 12.7012 153.176 12.8232 153.303 12.999C153.726 13.6631 154.109 14.1855 154.451 14.5664C154.793 14.9482 155.126 15.2168 155.45 15.373Q155.708 15.498 155.981 15.5566Q156.22 15.6084 156.47 15.6084Q157.039 15.6084 157.318 15.333C157.504 15.1504 157.597 14.918 157.597 14.6357C157.597 14.4219 157.543 14.2275 157.435 14.0518Q157.273 13.7891 156.844 13.5654C156.558 13.417 156.147 13.2695 155.611 13.125C154.786 12.9111 154.102 12.6328 153.559 12.2891Q152.745 11.7744 152.349 11.0537C152.085 10.5732 151.953 10.0127 151.953 9.37109Q151.953 8.41016 152.368 7.68555Q152.422 7.59082 152.483 7.50098C152.836 6.97852 153.319 6.5752 153.933 6.29297Q154.853 5.87012 156.002 5.87012C156.463 5.87012 156.838 5.91602 157.128 6.00684C157.418 6.09863 157.643 6.19043 157.803 6.28223C157.963 6.37305 158.084 6.41895 158.166 6.41895C158.255 6.41895 158.387 6.375 158.562 6.28809C158.736 6.2002 158.913 6.11426 159.091 6.03027C159.27 5.94629 159.419 5.9043 159.538 5.9043Q159.664 5.9043 159.759 5.95898Q159.815 5.99023 159.861 6.04199C159.943 6.13281 159.999 6.28906 160.028 6.51074L160.318 8.61621C160.349 8.79395 160.364 8.94824 160.364 9.07812C160.364 9.1709 160.356 9.25195 160.341 9.32031C160.303 9.48438 160.207 9.58887 160.051 9.63477C159.924 9.66504 159.79 9.64062 159.649 9.56055C159.508 9.48047 159.367 9.35254 159.225 9.17676C158.682 8.3457 158.186 7.75781 157.736 7.41504C157.286 7.07129 156.809 6.89941 156.303 6.89941C155.939 6.89941 155.663 6.97949 155.478 7.14062C155.292 7.30078 155.199 7.50977 155.199 7.76953C155.199 7.94531 155.24 8.10938 155.321 8.26172C155.403 8.41406 155.554 8.55762 155.773 8.69043C155.992 8.82422 156.303 8.95605 156.704 9.08594C157.783 9.4209 158.619 9.77734 159.214 10.1553C159.809 10.5332 160.225 10.9658 160.463 11.4541C160.701 11.9424 160.82 12.5107 160.82 13.1592C160.82 14.2275 160.467 15.0703 159.761 15.6885Z" clip-rule="evenodd" fill="#333D4B" fill-opacity="1.000000" fill-rule="evenodd"/>
	<path id="Combined Shape" d="M9.23132 2.77148C6.82623 0.339844 3.26123 -0.00976562 1.28424 1.99219C-0.693787 3.99316 -0.3479 7.59961 2.0531 10.0322C2.6936 10.6807 3.43164 11.1758 4.21075 11.5303C4.46637 10.0283 5.19928 8.58398 6.31201 7.39746C5.94348 7.26465 5.56573 7.15234 5.17157 7.04395C2.83734 6.39551 1.67737 4.42578 1.40637 2.11621C2.06543 2.91797 2.5509 3.83496 3.35773 4.50684C4.21796 5.22266 5.16541 5.48242 6.20526 5.78809C6.67639 5.92578 7.08594 6.13086 7.46167 6.36914C8.44916 5.63965 9.56287 5.15332 10.7125 4.95312C10.3625 4.16504 9.87183 3.41895 9.23132 2.77148ZM5.16437 12.1084C5.31732 10.6035 6.0379 9.13184 7.19275 7.96387C9.59778 5.53223 13.1628 5.18164 15.1398 7.18457C17.1179 9.18555 16.7729 12.792 14.3689 15.2246C13.2141 16.3926 11.7596 17.1221 10.2722 17.2773C10.0741 17.2969 9.87805 17.3076 9.6861 17.3076C8.40704 17.3076 7.26459 16.8535 6.42285 16.002C5.45386 15.0234 5.00629 13.6396 5.16437 12.1084ZM11.2514 12.2363C10.3235 12.4932 9.47046 12.7344 8.68213 13.3428C7.78082 14.04 7.25732 15.0117 6.54395 15.8789C6.80463 13.6055 7.93378 11.6523 10.2177 10.9814C11.2586 10.6758 12.205 10.415 13.0652 9.7002C13.873 9.02832 14.3586 8.1123 15.0165 7.30957C14.7446 9.61914 13.5856 11.5889 11.2514 12.2363Z" clip-rule="evenodd" fill="#0E8784" fill-opacity="1.000000" fill-rule="evenodd"/>
</svg>
